HIERARCHY
ROOT Hips
{
	OFFSET -406.556305 -580.994690 89.017906
	CHANNELS 6 Xposition Yposition Zposition Zrotation Yrotation Xrotation
	JOINT Spine
	{
		OFFSET 0.000000 2.080078 8.814247
		CHANNELS 6 Xposition Yposition Zposition Zrotation Yrotation Xrotation
		JOINT Spine1
		{
			OFFSET 0.000000 0.000000 8.844139
			CHANNELS 6 Xposition Yposition Zposition Zrotation Yrotation Xrotation
			JOINT Spine2
			{
				OFFSET 0.000000 0.000000 11.682266
				CHANNELS 6 Xposition Yposition Zposition Zrotation Yrotation Xrotation
				JOINT Spine3
				{
					OFFSET 0.000000 0.000000 11.746696
					CHANNELS 6 Xposition Yposition Zposition Zrotation Yrotation Xrotation
					JOINT Neck
					{
						OFFSET 0.000000 0.000000 17.658264
						CHANNELS 6 Xposition Yposition Zposition Zrotation Yrotation Xrotation
						JOINT Neck1
						{
							OFFSET 0.000000 0.000000 5.101517
							CHANNELS 6 Xposition Yposition Zposition Zrotation Yrotation Xrotation
							JOINT Head
							{
								OFFSET 0.000000 0.000000 5.101517
								CHANNELS 6 Xposition Yposition Zposition Zrotation Yrotation Xrotation
								JOINT HeadEnd
								{
									OFFSET 0.000000 0.000000 11.655090
									CHANNELS 6 Xposition Yposition Zposition Zrotation Yrotation Xrotation
									End Site
									{
										OFFSET 0.000000 0.000000 0.100006
									}
								}
							}
						}
					}
					JOINT RightShoulder
					{
						OFFSET -2.625397 0.000000 11.175217
						CHANNELS 6 Xposition Yposition Zposition Zrotation Yrotation Xrotation
						JOINT RightArm
						{
							OFFSET 0.000000 0.000000 10.434723
							CHANNELS 6 Xposition Yposition Zposition Zrotation Yrotation Xrotation
							JOINT RightForeArm
							{
								OFFSET 0.000000 0.000000 29.628418
								CHANNELS 6 Xposition Yposition Zposition Zrotation Yrotation Xrotation
								JOINT RightHand
								{
									OFFSET 0.000000 0.000000 22.857605
									CHANNELS 6 Xposition Yposition Zposition Zrotation Yrotation Xrotation
									JOINT RightHandThumb1
									{
										OFFSET -2.867310 -2.944275 3.959564
										CHANNELS 6 Xposition Yposition Zposition Zrotation Yrotation Xrotation
										JOINT RightHandThumb2
										{
											OFFSET 0.000000 0.000000 3.350403
											CHANNELS 6 Xposition Yposition Zposition Zrotation Yrotation Xrotation
											JOINT RightHandThumb3
											{
												OFFSET 0.000000 0.000000 3.756516
												CHANNELS 6 Xposition Yposition Zposition Zrotation Yrotation Xrotation
												JOINT RightHandThumb4
												{
													OFFSET 0.000000 0.000000 3.147339
													CHANNELS 6 Xposition Yposition Zposition Zrotation Yrotation Xrotation
													End Site
													{
														OFFSET 0.000000 0.000000 0.100006
													}
												}
											}
										}
									}
									JOINT RightHandIndex1
									{
										OFFSET -0.086761 -2.345276 10.030899
										CHANNELS 6 Xposition Yposition Zposition Zrotation Yrotation Xrotation
										JOINT RightHandIndex2
										{
											OFFSET 0.000000 0.000000 4.061096
											CHANNELS 6 Xposition Yposition Zposition Zrotation Yrotation Xrotation
											JOINT RightHandIndex3
											{
												OFFSET 0.000000 0.000000 3.248871
												CHANNELS 6 Xposition Yposition Zposition Zrotation Yrotation Xrotation
												JOINT RightHandIndex4
												{
													OFFSET 0.000000 0.000000 2.639709
													CHANNELS 6 Xposition Yposition Zposition Zrotation Yrotation Xrotation
													End Site
													{
														OFFSET 0.000000 0.000000 0.100006
													}
												}
											}
										}
									}
									JOINT RightHandMiddle1
									{
										OFFSET 0.104095 -0.006775 9.502945
										CHANNELS 6 Xposition Yposition Zposition Zrotation Yrotation Xrotation
										JOINT RightHandMiddle2
										{
											OFFSET 0.000000 0.000000 4.568726
											CHANNELS 6 Xposition Yposition Zposition Zrotation Yrotation Xrotation
											JOINT RightHandMiddle3
											{
												OFFSET 0.000000 0.000000 3.654984
												CHANNELS 6 Xposition Yposition Zposition Zrotation Yrotation Xrotation
												JOINT RightHandMiddle4
												{
													OFFSET 0.000000 0.000000 2.741241
													CHANNELS 6 Xposition Yposition Zposition Zrotation Yrotation Xrotation
													End Site
													{
														OFFSET 0.000000 0.000000 0.100006
													}
												}
											}
										}
									}
									JOINT RightHandRing1
									{
										OFFSET 0.086761 2.267456 8.921707
										CHANNELS 6 Xposition Yposition Zposition Zrotation Yrotation Xrotation
										JOINT RightHandRing2
										{
											OFFSET 0.000000 0.000000 4.061096
											CHANNELS 6 Xposition Yposition Zposition Zrotation Yrotation Xrotation
											JOINT RightHandRing3
											{
												OFFSET 0.000000 0.000000 3.654984
												CHANNELS 6 Xposition Yposition Zposition Zrotation Yrotation Xrotation
												JOINT RightHandRing4
												{
													OFFSET 0.000000 0.000000 2.741241
													CHANNELS 6 Xposition Yposition Zposition Zrotation Yrotation Xrotation
													End Site
													{
														OFFSET 0.000000 0.000000 0.100006
													}
												}
											}
										}
									}
									JOINT RightHandPinky1
									{
										OFFSET -0.173492 4.467224 7.976990
										CHANNELS 6 Xposition Yposition Zposition Zrotation Yrotation Xrotation
										JOINT RightHandPinky2
										{
											OFFSET 0.000000 0.000000 3.350403
											CHANNELS 6 Xposition Yposition Zposition Zrotation Yrotation Xrotation
											JOINT RightHandPinky3
											{
												OFFSET 0.000000 0.000000 2.842758
												CHANNELS 6 Xposition Yposition Zposition Zrotation Yrotation Xrotation
												JOINT RightHandPinky4
												{
													OFFSET 0.000000 0.000000 2.639709
													CHANNELS 6 Xposition Yposition Zposition Zrotation Yrotation Xrotation
													End Site
													{
														OFFSET 0.000000 0.000000 0.100006
													}
												}
											}
										}
									}
									JOINT RightForeArmEnd
									{
										OFFSET 0.000000 0.000000 0.000000
										CHANNELS 6 Xposition Yposition Zposition Zrotation Yrotation Xrotation
										End Site
										{
											OFFSET 0.000000 0.000000 0.100006
										}
									}
								}
								JOINT RightArmEnd
								{
									OFFSET 0.000000 0.000000 0.000000
									CHANNELS 6 Xposition Yposition Zposition Zrotation Yrotation Xrotation
									End Site
									{
										OFFSET 0.000000 0.000000 0.100006
									}
								}
							}
						}
					}
					JOINT LeftShoulder
					{
						OFFSET 2.625397 0.000000 11.175217
						CHANNELS 6 Xposition Yposition Zposition Zrotation Yrotation Xrotation
						JOINT LeftArm
						{
							OFFSET 0.000000 0.000000 10.813629
							CHANNELS 6 Xposition Yposition Zposition Zrotation Yrotation Xrotation
							JOINT LeftForeArm
							{
								OFFSET 0.000000 0.000000 28.724777
								CHANNELS 6 Xposition Yposition Zposition Zrotation Yrotation Xrotation
								JOINT LeftHand
								{
									OFFSET 0.644379 0.328857 25.716171
									CHANNELS 6 Xposition Yposition Zposition Zrotation Yrotation Xrotation
									JOINT LeftHandThumb1
									{
										OFFSET 2.867310 -2.944275 3.959564
										CHANNELS 6 Xposition Yposition Zposition Zrotation Yrotation Xrotation
										JOINT LeftHandThumb2
										{
											OFFSET 0.000000 0.000000 3.350403
											CHANNELS 6 Xposition Yposition Zposition Zrotation Yrotation Xrotation
											JOINT LeftHandThumb3
											{
												OFFSET 0.000000 0.000000 3.756516
												CHANNELS 6 Xposition Yposition Zposition Zrotation Yrotation Xrotation
												JOINT LeftHandThumb4
												{
													OFFSET 0.000000 0.000000 3.100006
													CHANNELS 6 Xposition Yposition Zposition Zrotation Yrotation Xrotation
													End Site
													{
														OFFSET 0.000000 0.000000 0.100006
													}
												}
											}
										}
									}
									JOINT LeftHandIndex1
									{
										OFFSET 0.086761 -2.345276 10.030899
										CHANNELS 6 Xposition Yposition Zposition Zrotation Yrotation Xrotation
										JOINT LeftHandIndex2
										{
											OFFSET 0.000000 0.000000 4.061096
											CHANNELS 6 Xposition Yposition Zposition Zrotation Yrotation Xrotation
											JOINT LeftHandIndex3
											{
												OFFSET 0.000000 0.000000 3.248871
												CHANNELS 6 Xposition Yposition Zposition Zrotation Yrotation Xrotation
												JOINT LeftHandIndex4
												{
													OFFSET 0.000000 0.000000 2.639709
													CHANNELS 6 Xposition Yposition Zposition Zrotation Yrotation Xrotation
													End Site
													{
														OFFSET 0.000000 0.000000 0.100006
													}
												}
											}
										}
									}
									JOINT LeftHandMiddle1
									{
										OFFSET -0.104095 -0.006775 9.502945
										CHANNELS 6 Xposition Yposition Zposition Zrotation Yrotation Xrotation
										JOINT LeftHandMiddle2
										{
											OFFSET 0.000000 0.000000 4.568726
											CHANNELS 6 Xposition Yposition Zposition Zrotation Yrotation Xrotation
											JOINT LeftHandMiddle3
											{
												OFFSET 0.000000 0.000000 3.654984
												CHANNELS 6 Xposition Yposition Zposition Zrotation Yrotation Xrotation
												JOINT LeftHandMiddle4
												{
													OFFSET 0.000000 0.000000 2.741241
													CHANNELS 6 Xposition Yposition Zposition Zrotation Yrotation Xrotation
													End Site
													{
														OFFSET 0.000000 0.000000 0.100006
													}
												}
											}
										}
									}
									JOINT LeftHandRing1
									{
										OFFSET -0.086761 2.267456 8.921707
										CHANNELS 6 Xposition Yposition Zposition Zrotation Yrotation Xrotation
										JOINT LeftHandRing2
										{
											OFFSET 0.000000 0.000000 4.061096
											CHANNELS 6 Xposition Yposition Zposition Zrotation Yrotation Xrotation
											JOINT LeftHandRing3
											{
												OFFSET 0.000000 0.000000 3.654984
												CHANNELS 6 Xposition Yposition Zposition Zrotation Yrotation Xrotation
												JOINT LeftHandRing4
												{
													OFFSET 0.000000 0.000000 2.741241
													CHANNELS 6 Xposition Yposition Zposition Zrotation Yrotation Xrotation
													End Site
													{
														OFFSET 0.000000 0.000000 0.100006
													}
												}
											}
										}
									}
									JOINT LeftHandPinky1
									{
										OFFSET 0.173492 4.467224 7.976990
										CHANNELS 6 Xposition Yposition Zposition Zrotation Yrotation Xrotation
										JOINT LeftHandPinky2
										{
											OFFSET 0.000000 0.000000 3.350403
											CHANNELS 6 Xposition Yposition Zposition Zrotation Yrotation Xrotation
											JOINT LeftHandPinky3
											{
												OFFSET 0.000000 0.000000 2.842758
												CHANNELS 6 Xposition Yposition Zposition Zrotation Yrotation Xrotation
												JOINT LeftHandPinky4
												{
													OFFSET 0.000000 0.000000 2.639709
													CHANNELS 6 Xposition Yposition Zposition Zrotation Yrotation Xrotation
													End Site
													{
														OFFSET 0.000000 0.000000 0.100006
													}
												}
											}
										}
									}
									JOINT LeftForeArmEnd
									{
										OFFSET 0.000000 0.000000 0.000000
										CHANNELS 6 Xposition Yposition Zposition Zrotation Yrotation Xrotation
										End Site
										{
											OFFSET 0.000000 0.000000 0.100006
										}
									}
								}
								JOINT LeftArmEnd
								{
									OFFSET 0.000000 0.000000 0.000000
									CHANNELS 6 Xposition Yposition Zposition Zrotation Yrotation Xrotation
									End Site
									{
										OFFSET 0.000000 0.000000 0.100006
									}
								}
							}
						}
					}
				}
			}
		}
	}
	JOINT RightUpLeg
	{
		OFFSET -11.289948 0.000000 0.000000
		CHANNELS 6 Xposition Yposition Zposition Zrotation Yrotation Xrotation
		JOINT RightLeg
		{
			OFFSET 0.000000 0.000000 -38.200329
			CHANNELS 6 Xposition Yposition Zposition Zrotation Yrotation Xrotation
			JOINT RightFoot
			{
				OFFSET 0.000000 0.000000 -39.900856
				CHANNELS 6 Xposition Yposition Zposition Zrotation Yrotation Xrotation
				JOINT RightToeBase
				{
					OFFSET 0.000000 -15.261658 0.000001
					CHANNELS 6 Xposition Yposition Zposition Zrotation Yrotation Xrotation
					JOINT RightToeBaseEnd
					{
						OFFSET 0.000000 -7.370728 0.000001
						CHANNELS 6 Xposition Yposition Zposition Zrotation Yrotation Xrotation
						End Site
						{
							OFFSET 0.000000 0.000000 0.100000
						}
					}
				}
				JOINT RightLegEnd
				{
					OFFSET 0.000000 0.000000 0.000000
					CHANNELS 6 Xposition Yposition Zposition Zrotation Yrotation Xrotation
					End Site
					{
						OFFSET 0.000000 0.000000 0.100000
					}
				}
			}
			JOINT RightUpLegEnd
			{
				OFFSET 0.000000 0.000000 0.000000
				CHANNELS 6 Xposition Yposition Zposition Zrotation Yrotation Xrotation
				End Site
				{
					OFFSET 0.000000 0.000000 0.099998
				}
			}
		}
	}
	JOINT LeftUpLeg
	{
		OFFSET 11.315674 0.000000 0.000000
		CHANNELS 6 Xposition Yposition Zposition Zrotation Yrotation Xrotation
		JOINT LeftLeg
		{
			OFFSET 0.000000 0.000000 -38.200329
			CHANNELS 6 Xposition Yposition Zposition Zrotation Yrotation Xrotation
			JOINT LeftFoot
			{
				OFFSET 0.000000 0.000000 -39.900856
				CHANNELS 6 Xposition Yposition Zposition Zrotation Yrotation Xrotation
				JOINT LeftToeBase
				{
					OFFSET 0.000000 -15.261658 0.000001
					CHANNELS 6 Xposition Yposition Zposition Zrotation Yrotation Xrotation
					JOINT LeftToeBaseEnd
					{
						OFFSET 0.000000 -7.539978 0.000001
						CHANNELS 6 Xposition Yposition Zposition Zrotation Yrotation Xrotation
						End Site
						{
							OFFSET 0.000000 0.000000 0.100000
						}
					}
				}
				JOINT LeftLegEnd
				{
					OFFSET 0.000000 0.000000 0.000000
					CHANNELS 6 Xposition Yposition Zposition Zrotation Yrotation Xrotation
					End Site
					{
						OFFSET 0.000000 0.000000 0.100000
					}
				}
			}
			JOINT LeftUpLegEnd
			{
				OFFSET 0.000000 0.000000 0.000000
				CHANNELS 6 Xposition Yposition Zposition Zrotation Yrotation Xrotation
				End Site
				{
					OFFSET 0.000000 0.000000 0.099998
				}
			}
		}
	}
}
MOTION
Frames: 2
Frame Time: 0.016667
0.218994 -2.776245 81.684059 3.791000 0.542351 -9.203711 -0.000001 2.080104 8.814253 0.526306 -1.220897 17.825242 -0.000005 -0.000055 8.844151 0.297584 0.433513 11.107307 0.000010 0.000026 11.682246 0.228243 1.849214 14.225454 0.000024 -0.000019 11.746698 0.269407 2.380640 8.505629 0.000010 0.000019 17.658283 -0.647069 -1.601375 5.604218 0.000005 0.000024 5.101520 -0.364976 -0.193346 -0.823100 -0.000011 0.000024 5.101526 -1.051898 0.533626 -12.903500 -0.000004 -0.000001 11.655091 0.000000 -0.000000 0.000001 -2.625404 -0.000008 11.175206 21.532849 -71.386275 1.561834 -0.000008 -0.000015 10.434717 -65.223546 -46.122690 92.594559 0.000010 -0.000031 29.628452 14.170060 -0.302785 26.835991 0.000006 0.000075 22.857588 10.680398 3.450062 -2.892383 -2.867268 -2.944382 3.959473 31.530175 -18.328256 49.913998 -0.000038 -0.000038 3.350464 -15.033253 9.282951 -26.791811 -0.000011 -0.000053 3.756569 -9.969819 7.211373 -18.309208 -0.000041 0.000007 3.147354 -0.000001 -0.000000 0.000000 -0.086716 -2.345277 10.030910 -13.419428 -22.153309 5.902813 0.000012 -0.000002 4.061110 0.171469 -16.036647 2.320691 -0.000025 0.000012 3.248854 -0.326484 -16.036710 2.319831 -0.000013 0.000007 2.639696 -0.000001 -0.000001 0.000002 0.104057 -0.006773 9.502918 -7.765613 -21.429415 3.953466 0.000004 -0.000058 4.568753 0.390477 -15.364150 0.825631 -0.000034 -0.000036 3.655013 -0.110916 -15.364152 0.828888 -0.000022 0.000018 2.741261 -0.000002 0.000002 0.000001 0.086794 2.267425 8.921682 0.576529 -23.336125 2.018216 -0.000030 -0.000007 4.061080 -0.848647 -16.404154 -1.035245 0.000009 0.000023 3.655002 0.146131 -16.404026 -1.036785 -0.000020 -0.000004 2.741264 -0.000000 -0.000000 -0.000001 -0.173500 4.467151 7.977016 9.837574 -23.384394 -1.543915 -0.000004 0.000021 3.350439 -1.538356 -16.122025 -3.222382 -0.000040 -0.000027 2.842751 0.450284 -16.121859 -3.219221 0.000015 0.000016 2.639692 -0.000002 -0.000000 0.000000 0.000045 -0.000004 -0.000017 0.000001 -0.000000 0.000000 -0.000007 0.000007 -0.000004 -0.000000 -0.000000 0.000000 2.625420 0.000011 11.175250 -21.238793 67.622725 -0.231479 0.000008 0.000019 10.813644 56.291001 60.195762 75.616649 0.000010 -0.000061 28.724764 -9.223564 -0.390134 41.023291 0.644377 0.328819 25.716156 -19.129476 -9.416124 -14.691431 2.867271 -2.944260 3.959610 -31.497680 19.046481 48.857542 -0.000034 0.000023 3.350372 16.635692 -9.763168 -29.415893 -0.000015 -0.000008 3.756527 11.011546 -7.710566 -20.083171 -0.000034 -0.000001 3.100020 -0.000000 0.000000 0.000000 0.086723 -2.345267 10.030928 -4.087056 29.174508 -2.421764 -0.000015 0.000005 4.061081 -0.047098 20.561683 -3.021544 -0.000035 -0.000028 3.248877 -0.547162 20.561707 -3.021567 -0.000052 0.000003 2.639711 0.000000 0.000001 -0.000001 -0.104111 -0.006756 9.502981 1.634231 29.275987 1.269781 -0.000035 -0.000006 4.568768 0.292778 20.712953 -1.136395 -0.000026 -0.000020 3.655007 -0.207604 20.713020 -1.135891 -0.000031 -0.000000 2.741279 0.000000 0.000000 -0.000001 -0.086777 2.267441 8.921776 12.128141 33.241042 7.695266 0.000010 0.000085 4.061110 -0.668713 23.977024 1.560689 -0.000034 0.000024 3.655002 0.330971 23.977027 1.558255 0.000011 -0.000007 2.741259 0.000001 0.000001 0.000003 0.173401 4.467220 7.977058 22.885947 33.516896 14.411153 -0.000040 -0.000043 3.350460 -0.842809 24.994092 5.205843 -0.000026 -0.000066 2.842804 1.156542 24.994039 5.209221 0.000000 0.000001 2.639717 -0.000000 -0.000001 0.000001 -0.000005 0.000014 0.000028 -0.000002 -0.000000 -0.000000 -0.000015 0.000010 0.000006 -0.000000 -0.000001 0.000001 -11.289958 -0.000025 0.000011 -8.445495 7.228132 -16.006473 0.000003 0.000036 -38.200359 -0.439601 0.456743 46.094799 -0.000019 0.000003 -39.900856 -9.940563 -3.055255 2.906753 0.000010 -15.261703 0.000009 2.396408 -0.322137 -12.729381 -0.000009 -7.370733 0.000001 0.000001 -0.000000 -0.000000 -0.000009 -0.000003 0.000000 0.000000 0.000000 0.000001 -0.000003 -0.000001 0.000003 0.000000 -0.000000 -0.000001 11.315666 -0.000012 -0.000004 1.440982 -6.821444 -14.332180 -0.000015 -0.000025 -38.200340 0.155606 -0.167267 47.070167 -0.000006 -0.000060 -39.900852 11.419393 4.691251 0.543036 -0.000014 -15.261743 0.000015 -1.686562 0.115395 -15.084292 0.000015 -7.540092 0.000000 -0.000001 0.000000 0.000001 0.000011 0.000006 -0.000001 -0.000001 0.000000 -0.000001 -0.000006 -0.000000 0.000008 -0.000000 -0.000000 0.000001 
0.242310 -2.780945 81.680161 3.763520 0.542434 -9.173917 0.000014 2.080085 8.814226 0.512425 -1.216357 17.809143 -0.000001 0.000011 8.844133 0.294621 0.423958 11.097027 -0.000012 -0.000021 11.682254 0.209080 1.839310 14.207176 0.000027 -0.000000 11.746708 0.267162 2.365728 8.495908 -0.000008 0.000006 17.658260 -0.652712 -1.620109 5.604049 0.000010 -0.000022 5.101527 -0.357543 -0.194228 -0.817140 -0.000014 0.000034 5.101530 -1.051715 0.533164 -12.898198 -0.000001 0.000012 11.655062 -0.000001 0.000001 0.000000 -2.625397 -0.000008 11.175217 21.507916 -71.398174 1.561782 -0.000031 -0.000015 10.434727 -65.220349 -46.052236 92.593603 0.000010 0.000015 29.628473 14.212494 -0.303968 26.824822 -0.000009 0.000045 22.857576 10.329932 3.535257 -3.010983 -2.867298 -2.944321 3.959473 31.530185 -18.328263 49.913991 -0.000050 -0.000038 3.350395 -15.033243 9.282963 -26.791782 -0.000004 -0.000061 3.756565 -9.969829 7.211368 -18.309230 -0.000016 0.000004 3.147338 -0.000000 -0.000000 -0.000000 -0.086800 -2.345265 10.030884 -13.445166 -22.244442 5.940258 0.000012 -0.000026 4.061068 0.172490 -16.104027 2.321685 -0.000013 0.000014 3.248865 -0.326093 -16.104030 2.321474 -0.000023 -0.000004 2.639731 0.000001 -0.000002 -0.000002 0.104088 -0.006744 9.502926 -7.787376 -21.520618 4.033069 -0.000037 -0.000070 4.568762 0.390936 -15.432247 0.824985 0.000005 -0.000054 3.655007 -0.110563 -15.432450 0.827952 -0.000013 -0.000058 2.741251 0.000000 -0.000001 0.000001 0.086787 2.267436 8.921675 0.560075 -23.438035 2.123323 -0.000021 -0.000000 4.061098 -0.849424 -16.470590 -1.034523 0.000001 -0.000007 3.654993 0.146026 -16.470675 -1.036160 0.000002 0.000019 2.741242 -0.000001 0.000001 -0.000001 -0.173492 4.467196 7.976978 9.830038 -23.490421 -1.445915 -0.000013 -0.000028 3.350414 -1.539578 -16.178358 -3.233037 -0.000011 0.000026 2.842735 0.449730 -16.178391 -3.230052 0.000039 0.000008 2.639717 -0.000001 0.000002 0.000000 0.000029 0.000003 -0.000014 -0.000001 -0.000000 -0.000000 0.000012 -0.000011 -0.000017 0.000001 -0.000001 0.000001 2.625412 -0.000027 11.175203 -21.237582 67.655045 -0.231009 0.000038 -0.000023 10.813633 56.367987 59.995746 75.663155 0.000019 -0.000046 28.724737 -9.352086 -0.390147 41.050793 0.644366 0.328873 25.716156 -18.978575 -9.331895 -14.831495 2.867268 -2.944260 3.959564 -31.497697 19.046539 48.857538 -0.000042 -0.000031 3.350357 16.635723 -9.763193 -29.415866 -0.000008 0.000015 3.756519 11.011545 -7.710590 -20.083193 -0.000031 0.000001 3.100003 -0.000000 -0.000000 0.000000 0.086716 -2.345285 10.030926 -4.098566 29.082331 -2.454732 -0.000018 0.000023 4.061081 -0.044335 20.500907 -3.012049 -0.000040 0.000010 3.248898 -0.544368 20.500973 -3.012052 -0.000015 -0.000006 2.639731 0.000000 -0.000002 -0.000002 -0.104127 -0.006786 9.502938 1.623362 29.220485 1.290537 0.000003 -0.000016 4.568744 0.293973 20.672683 -1.132950 -0.000025 0.000004 3.655001 -0.206053 20.672686 -1.132659 0.000003 -0.000001 2.741259 -0.000000 0.000001 -0.000001 -0.086746 2.267463 8.921715 12.126571 33.240366 7.839519 -0.000026 -0.000025 4.061128 -0.670026 23.984491 1.557912 -0.000016 0.000029 3.655015 0.330189 23.984484 1.556025 -0.000003 -0.000001 2.741266 0.000000 0.000000 0.000001 0.173424 4.467209 7.977005 22.887860 33.514256 14.673265 0.000011 -0.000063 3.350433 -0.845091 25.033646 5.207597 0.000002 -0.000065 2.842789 1.155229 25.033752 5.207710 0.000008 0.000007 2.639725 -0.000001 0.000000 -0.000001 -0.000022 0.000050 -0.000028 0.000002 -0.000000 -0.000000 -0.000014 0.000004 -0.000018 -0.000002 -0.000001 -0.000002 -11.289952 -0.000017 -0.000004 -9.026752 7.315805 -16.115563 -0.000005 -0.000008 -38.200367 -0.448738 0.466301 46.097182 -0.000005 -0.000013 -39.900860 -9.358876 -2.843760 2.871360 0.000017 -15.261653 0.000006 2.395213 -0.319341 -12.747075 0.000005 -7.370787 -0.000001 -0.000000 -0.000000 -0.000001 -0.000011 -0.000006 -0.000001 0.000001 -0.000000 -0.000001 0.000002 -0.000001 0.000003 -0.000000 0.000000 -0.000002 11.315672 0.000002 0.000008 1.851069 -6.871584 -14.409734 -0.000011 -0.000047 -38.200333 0.162703 -0.177807 47.094622 -0.000000 -0.000003 -39.900860 11.064480 4.535369 0.489612 -0.000013 -15.261690 -0.000011 -1.689771 0.122555 -15.108220 -0.000006 -7.540033 0.000001 -0.000001 -0.000000 0.000001 -0.000002 -0.000011 -0.000000 0.000002 0.000000 0.000001 0.000000 0.000002 0.000000 -0.000001 -0.000000 -0.000003 
